<svg width="160" height="55" viewBox="0 0 160 55" fill="none" xmlns="http://www.w3.org/2000/svg">
<g clip-path="url(#clip0_13948_4813)">
<path d="M0 54.5V0.70752H23.411V7.95829H7.8524V24.2808H21.4107V31.5316H7.8524V54.5H0Z" fill="white"/>
<path d="M36.5824 13.1782H28.73V54.4999H36.5824V13.1782Z" fill="white"/>
<path d="M44.2051 54.5V0.70752H67.6138V7.95829H52.0575V23.7511H65.6158V31.004H52.0575V46.7924H67.6138V54.5H44.2051Z" fill="white"/>
<path d="M72.7034 54.5V0.70752H80.558V46.7924H96.1143V54.5H72.7034Z" fill="white"/>
<path d="M101.197 54.5022V0.70752H112.823C117.344 0.70752 120.772 1.91635 123.107 4.33401C125.443 6.75167 126.611 10.1766 126.613 14.6087V39.7712C126.613 44.8081 125.367 48.5228 122.876 50.9155C120.384 53.3081 116.804 54.5045 112.134 54.5045L101.197 54.5022ZM109.049 7.9605V47.2493H112.672C114.878 47.2493 116.444 46.707 117.368 45.6225C118.292 44.538 118.754 42.8385 118.754 40.5238V14.6087C118.754 12.4942 118.319 10.8571 117.449 9.69759C116.579 8.53805 114.986 7.95902 112.672 7.9605H109.049Z" fill="white"/>
<path d="M36.8005 8.16352H28.5364V0.5H36.8005V8.16352Z" fill="white"/>
<path d="M146.518 31.4609H138.254V23.7974H146.518V31.4609ZM139.186 30.5471H145.587V24.7112H139.186V30.5471Z" fill="#E63312"/>
<path d="M160 31.4609H151.74V23.7974H160V31.4609ZM152.674 30.5471H159.073V24.7112H152.674V30.5471Z" fill="#E63312"/>
</g>
<defs>
<clipPath id="clip0_13948_4813">
<rect width="160" height="54" fill="white" transform="translate(0 0.5)"/>
</clipPath>
</defs>
</svg>
