<svg width="90" height="88" viewBox="0 0 90 88" fill="none" xmlns="http://www.w3.org/2000/svg">
<path d="M10.0539 62.9543C8.94028 62.692 8.25005 61.5769 8.51231 60.4632C8.51256 60.4617 8.51307 60.4602 8.51332 60.4584C8.60454 60.0756 8.69221 59.6929 8.77178 59.3149C9.00641 58.1936 10.1054 57.475 11.2266 57.7097C12.3478 57.9443 13.0664 59.0435 12.8318 60.1645C12.7454 60.577 12.6481 60.9941 12.5485 61.417C12.3266 62.3502 11.4934 63.0095 10.5338 63.0108C10.3722 63.0113 10.2113 62.9923 10.0539 62.9543ZM84.6507 36.172C83.0615 34.8293 81.419 33.4463 81.0445 32.2898C80.6381 31.0373 81.1631 28.8744 81.6666 26.7852C82.4594 23.5087 83.2794 20.1216 81.4059 17.5419C79.5098 14.9432 75.8597 14.667 72.6364 14.424C70.5034 14.2628 68.3098 14.0968 67.2704 13.3407C66.2571 12.6024 65.43 10.5818 64.6324 8.62671C63.3999 5.6119 62.004 2.19547 58.9086 1.19054C55.9247 0.221075 52.9834 2.0295 50.1462 3.78117C48.2881 4.92344 46.3659 6.10752 44.9994 6.10752C43.6329 6.10752 41.7109 4.92243 39.8515 3.78117C37.0075 2.02976 34.0733 0.22589 31.0904 1.19054C27.9938 2.19547 26.5991 5.61089 25.3679 8.62544C24.568 10.5808 23.7432 12.6024 22.7289 13.3407C21.69 14.0968 19.4906 14.2628 17.3634 14.424C14.14 14.6609 10.49 14.9432 8.5939 17.5429C6.72035 20.1168 7.54031 23.5036 8.33316 26.7862C8.83791 28.8754 9.36166 31.0383 8.95523 32.2908C8.58072 33.4427 6.94054 34.8316 5.35028 36.173C2.84174 38.2921 0 40.6932 0 44.0029C0 47.3127 2.84402 49.7138 5.34927 51.8339C6.43225 52.6825 7.43389 53.6299 8.34152 54.6637C9.06722 55.5498 10.3737 55.68 11.26 54.9546C12.1221 54.2489 12.2723 52.9881 11.6006 52.0994C10.5245 50.8398 9.3272 49.6887 8.02656 48.6627C6.20876 47.1221 4.14796 45.3849 4.14796 44.0006C4.14796 42.6164 6.20876 40.8743 8.02656 39.3386C10.059 37.6214 12.1611 35.8461 12.9007 33.5684C13.6698 31.1982 13.0061 28.4596 12.3651 25.8087C11.821 23.5571 11.2038 21.0103 11.948 19.9866C12.7112 18.9391 15.3492 18.7399 17.6753 18.5646C20.3807 18.3596 23.1786 18.1498 25.1695 16.6994C27.1368 15.2677 28.1901 12.6916 29.207 10.2005C30.0982 8.02111 31.1031 5.55033 32.3736 5.13908C33.5255 4.76938 35.7345 6.11918 37.679 7.3172C40.0289 8.76404 42.4594 10.2598 45.0001 10.2598C47.5409 10.2598 49.9678 8.77139 52.3215 7.31846C54.265 6.12045 56.4609 4.76812 57.6282 5.14034C58.8926 5.55159 59.9024 8.02238 60.7935 10.2018C61.8114 12.6903 62.8637 15.269 64.831 16.7007C66.8219 18.151 69.6198 18.3598 72.3252 18.5658C74.6516 18.7425 77.2893 18.9416 78.0525 19.9879C78.7967 21.0128 78.1805 23.5609 77.6355 25.8112C76.9944 28.4621 76.3318 31.2033 77.0998 33.5709C77.8392 35.8487 79.9438 37.6239 81.974 39.3411C83.7918 40.8817 85.8526 42.6177 85.8526 44.0032C85.8526 45.3884 83.7918 47.1292 81.9727 48.6663C79.9403 50.3835 77.8392 52.1587 77.0998 54.4352C76.3308 56.8053 76.9944 59.5452 77.6355 62.1972C78.1795 64.4488 78.7967 66.9943 78.0515 68.0182C77.2883 69.0658 74.6503 69.2649 72.3229 69.4403C69.6185 69.6452 66.8219 69.8551 64.831 71.3044C62.8627 72.7361 61.8104 75.3135 60.7923 77.8043C59.9024 79.9837 58.8962 82.4532 57.6269 82.8658C56.4715 83.2355 54.266 81.8846 52.3225 80.6876C49.9678 79.2408 47.5409 77.7415 45.0001 77.7415C42.4594 77.7415 40.0228 79.237 37.6777 80.6851C35.7343 81.8821 33.53 83.2319 32.3723 82.8632C31.1066 82.4507 30.0982 79.9812 29.207 77.8018C28.1901 75.3133 27.1368 72.7333 25.1695 71.3019C23.1786 69.8525 20.3807 69.6427 17.6753 69.4367C15.349 69.2601 12.7112 69.0622 11.9467 68.0147C11.8076 67.8105 11.7146 67.5784 11.6741 67.3346C11.4519 66.2108 10.3608 65.4801 9.23699 65.7023C8.11322 65.9245 7.38245 67.0156 7.60467 68.1394C7.76101 68.9748 8.09878 69.7656 8.59415 70.4561C10.4903 73.0561 14.1403 73.3323 17.3636 73.5751C19.4967 73.7362 21.6915 73.9032 22.7306 74.6583C23.7439 75.3967 24.5697 77.4172 25.3687 79.3736C26.6011 82.3884 27.996 85.8038 31.0924 86.8097C31.6494 86.9907 32.2312 87.0821 32.8167 87.0811C35.2057 87.0811 37.5569 85.6307 39.8536 84.2204C41.7129 83.0756 43.6351 81.8917 45.0014 81.8917C46.3677 81.8917 48.2899 83.0768 50.1492 84.2204C52.9932 85.9682 55.93 87.7757 58.9091 86.8097C62.0057 85.8035 63.4017 82.3884 64.6329 79.3736C65.4315 77.4182 66.2576 75.3967 67.2719 74.6583C68.31 73.9034 70.5094 73.7375 72.6354 73.5763C75.86 73.3394 79.5146 73.0574 81.4048 70.4574C83.2784 67.8822 82.4584 64.4964 81.6668 61.214C81.1608 59.1236 80.6384 56.9622 81.0448 55.7094C81.4193 54.5575 83.0595 53.1687 84.6497 51.8273C87.1573 49.7085 90.0003 47.3076 90.0003 43.9963C90.0003 40.6851 87.1573 38.2926 84.651 36.1738V36.172H84.6507ZM55.0776 43.7989C54.2817 44.6227 54.3043 45.9355 55.128 46.7314C55.9315 47.5078 57.2056 47.508 58.0093 46.7319L64.1408 40.6004C66.8214 37.9591 66.8533 33.6447 64.212 30.9641C61.5707 28.2835 57.2565 28.2516 54.5757 30.8929C54.5516 30.9167 54.5275 30.9405 54.5039 30.9646L41.2457 44.2229L35.4958 38.473C32.8335 35.8119 28.5178 35.8129 25.8567 38.4753C23.1956 41.1376 23.1966 45.4533 25.859 48.1144L36.4273 58.6827C39.0886 61.3433 43.4028 61.3433 46.0641 58.6827L52.5037 52.2431C53.3133 51.4335 53.3133 50.121 52.5037 49.3114C51.6941 48.5018 50.3816 48.5018 49.572 49.3114L43.1311 55.7497C42.0771 56.7595 40.4146 56.7595 39.3602 55.7497L28.7907 45.1743C27.751 44.1334 27.751 42.4469 28.7907 41.406C29.8448 40.3962 31.5072 40.3962 32.5616 41.406L39.7763 48.6217C40.5861 49.4307 41.8984 49.4307 42.708 48.6217L57.4334 33.8938C58.4563 32.8344 60.1441 32.8047 61.2035 33.8276C62.2629 34.8506 62.2926 36.5384 61.2696 37.5978C61.2481 37.6201 61.2263 37.6419 61.204 37.6634L55.0776 43.7989Z" fill="white"/>
</svg>
