<svg width="18" height="30" viewBox="0 0 18 30" fill="none" xmlns="http://www.w3.org/2000/svg">
<path d="M15 0H3C1.34643 0 0 1.34643 0 3V27C0 28.6548 1.34643 30 3 30H15C16.6548 30 18 28.6548 18 27V3C18 1.34643 16.6548 0 15 0ZM16.8 27C16.8 27.9924 15.9924 28.8 15 28.8H3C2.0076 28.8 1.2 27.9924 1.2 27V3C1.2 2.0076 2.0076 1.2 3 1.2H15C15.9924 1.2 16.8 2.0076 16.8 3V27Z" fill="#E63312"/>
<path d="M10.2012 2.40001H7.80117C7.46994 2.40001 7.20117 2.66884 7.20117 3.00001C7.20117 3.33118 7.47 3.60001 7.80117 3.60001H10.2012C10.5323 3.60001 10.8012 3.33118 10.8012 3.00001C10.8012 2.66884 10.5323 2.40001 10.2012 2.40001Z" fill="#E63312"/>
<path d="M9.0004 26.4C8.66922 26.4 8.40039 26.6688 8.40039 27C8.40039 27.3312 8.66922 27.6 9.0004 27.6C9.33157 27.6 9.6004 27.3312 9.6004 27C9.6004 26.6688 9.33157 26.4 9.0004 26.4Z" fill="#E63312"/>
<path d="M17.4 4.8H0.6C0.268769 4.8 0 5.06883 0 5.4C0 5.73123 0.268769 6 0.6 6H17.4C17.7312 6 18 5.73117 18 5.4C18 5.06883 17.7312 4.8 17.4 4.8Z" fill="#E63312"/>
<path d="M17.4 24H0.6C0.268769 24 0 24.2688 0 24.6C0 24.9312 0.268769 25.2 0.6 25.2H17.4C17.7312 25.2 18 24.9312 18 24.6C18 24.2688 17.7312 24 17.4 24Z" fill="#E63312"/>
</svg>
