<svg width="33" height="26" viewBox="0 0 33 26" fill="none" xmlns="http://www.w3.org/2000/svg">
<path d="M23.2253 11.7982C23.0473 11.8961 22.9259 12.0711 22.8879 12.2849C22.8498 12.4986 22.8982 12.7335 23.0225 12.9379C23.892 14.3684 24.2308 16.0126 23.9645 17.5087C23.6981 19.0049 22.8484 20.2304 21.6022 20.9156C21.0006 21.2494 20.322 21.4445 19.6047 21.4897C19.4996 21.4968 19.4004 21.526 19.3126 21.5756C19.2248 21.6251 19.1501 21.6941 19.0929 21.7785C19.0357 21.863 18.9971 21.9612 18.9792 22.0677C18.9613 22.1742 18.9645 22.2868 18.9886 22.399C19.0128 22.5113 19.0574 22.6211 19.1199 22.7221C19.1824 22.8231 19.2616 22.9134 19.3529 22.9877C19.4443 23.0621 19.546 23.1191 19.6523 23.1555C19.7586 23.1919 19.8674 23.2069 19.9724 23.1998C21.1481 23.1206 22.2396 22.7341 23.151 22.0741C24.0625 21.4142 24.7659 20.501 25.1997 19.4148C25.6334 18.3286 25.7841 17.1027 25.6386 15.8446C25.493 14.5866 25.0557 13.3349 24.365 12.1996C24.2407 11.9953 24.0509 11.8382 23.8372 11.7629C23.6235 11.6876 23.4034 11.7003 23.2253 11.7982Z" fill="#E63312"/>
<path d="M13.4418 18.7576L10.8154 14.364C10.6993 14.1698 10.5219 14.0205 10.3221 13.949C10.1224 13.8774 9.91672 13.8895 9.75035 13.9825C9.58398 14.0756 9.47054 14.2419 9.43499 14.445C9.39944 14.6482 9.44469 14.8714 9.56078 15.0656L12.1872 19.4591C13.0904 20.9559 14.4016 22.162 15.9062 22.8802C16.0161 22.9321 16.1316 22.9588 16.2443 22.9584C16.357 22.9579 16.464 22.9303 16.5575 22.8775C16.7016 22.7979 16.8071 22.663 16.8564 22.4954C16.8847 22.3989 16.8936 22.2943 16.8826 22.1874C16.8717 22.0806 16.841 21.9737 16.7924 21.8729C16.7437 21.772 16.6782 21.6793 16.5994 21.5999C16.5206 21.5205 16.4302 21.4561 16.3333 21.4103C15.1613 20.8603 14.14 19.9233 13.4418 18.7576Z" fill="#E63312"/>
<path d="M19.5259 4.6356C19.3605 4.72834 19.2477 4.8942 19.2124 5.09668C19.1771 5.29916 19.2221 5.52168 19.3374 5.71528L21.9481 10.0952C22.0635 10.2888 22.2398 10.4377 22.4384 10.509C22.6369 10.5803 22.8413 10.5683 23.0067 10.4755C23.1721 10.3828 23.2848 10.2169 23.3202 10.0144C23.3555 9.81197 23.3105 9.58945 23.1951 9.39584L20.5845 5.0159C20.4691 4.82229 20.2927 4.67346 20.0942 4.60214C19.8957 4.53082 19.6912 4.54286 19.5259 4.6356Z" fill="#E63312"/>
<path d="M12.988 11.3157C12.8155 11.4109 12.6978 11.5811 12.661 11.7889C12.6241 11.9967 12.671 12.225 12.7914 12.4237L15.5147 16.9185C15.9962 17.7132 16.7322 18.3242 17.5606 18.6169C18.3891 18.9097 19.2422 18.8603 19.9323 18.4796C20.6224 18.0989 21.0929 17.4181 21.2404 16.587C21.3879 15.7559 21.2003 14.8425 20.7187 14.0477L16.4068 6.93099C15.6243 5.63956 14.4285 4.64677 13.0822 4.17101C11.736 3.69526 10.3497 3.77552 9.22827 4.39413C8.10686 5.01275 7.34222 6.11905 7.10255 7.46965C6.86288 8.82026 7.16781 10.3045 7.95028 11.596C8.07065 11.7947 8.25464 11.9474 8.46175 12.0206C8.66886 12.0938 8.88214 12.0814 9.05467 11.9863C9.22719 11.8911 9.34483 11.7209 9.3817 11.5131C9.41857 11.3053 9.37166 11.077 9.25128 10.8783C8.70958 9.98421 8.49847 8.95663 8.66439 8.0216C8.83032 7.08656 9.35968 6.32067 10.136 5.8924C10.9124 5.46412 11.8722 5.40856 12.8042 5.73793C13.7362 6.0673 14.5641 6.75461 15.1058 7.64868L19.4177 14.7654C19.6585 15.1628 19.7523 15.6195 19.6786 16.0351C19.6048 16.4506 19.3696 16.791 19.0245 16.9814C18.6795 17.1717 18.2529 17.1964 17.8387 17.05C17.4245 16.9036 17.0565 16.5982 16.8157 16.2008L14.0924 11.706C13.972 11.5073 13.788 11.3546 13.5809 11.2814C13.3738 11.2082 13.1605 11.2206 12.988 11.3157Z" fill="#E63312"/>
</svg>
