<svg width="12" height="14" viewBox="0 0 12 14" fill="none" xmlns="http://www.w3.org/2000/svg">
<path d="M8.87541 6.75964C9.55359 6.04844 9.97164 5.08693 9.97164 4.02828C9.97164 1.84772 8.20978 0 6.0094 0C3.82553 0 1.98112 1.84441 1.98112 4.02828C1.98112 5.05451 2.38331 6.02327 3.11367 6.76757C1.30228 7.78322 0 9.73264 0 12.0189V13.0094C0 13.5562 0.4438 14 0.990559 14H10.9623C11.509 14 11.9528 13.5562 11.9528 13.0094V12.0189C11.9528 9.77755 10.72 7.79775 8.87541 6.75964ZM6.0094 1.98119C7.08317 1.98119 7.99052 2.91891 7.99052 4.02835C7.99052 5.12062 7.10166 6.00947 6.0094 6.00947C4.89996 6.00947 3.96224 5.10212 3.96224 4.02835C3.96224 2.93807 4.91912 1.98119 6.0094 1.98119ZM1.98112 12.0189C1.98112 9.83501 3.82553 7.99059 6.0094 7.99059C8.19393 7.99059 9.97164 9.79736 9.97164 12.0189H1.98112Z" fill="#7D8D98"/>
</svg>
