<svg width="32" height="32" viewBox="0 0 32 32" fill="none" xmlns="http://www.w3.org/2000/svg">
<path d="M31.7255 24.7193L26.6549 19.6481L26.5505 18.3629L27.9479 17.5113C28.3432 17.2704 28.5035 16.7771 28.3254 16.3499L27.6957 14.8395L28.7614 13.5978C29.0629 13.2466 29.0629 12.728 28.7615 12.3766L27.6956 11.1345L28.3254 9.62402C28.5035 9.19683 28.3432 8.70352 27.9479 8.46265L26.5505 7.61102L26.683 5.98015C26.7205 5.51877 26.4155 5.09908 25.9652 4.99208L24.3732 4.61402L23.995 3.02158C23.8881 2.57115 23.4675 2.26646 23.007 2.30377L21.3757 2.43627L20.524 1.03877C20.2831 0.643396 19.7895 0.483334 19.3625 0.661397L17.8522 1.29152L16.6107 0.225834C16.2595 -0.0756035 15.7407 -0.0756035 15.3895 0.225834L14.1479 1.29152L12.6376 0.661459C12.2103 0.483271 11.717 0.643521 11.4761 1.03883L10.6244 2.43633L8.99305 2.30383C8.53167 2.2669 8.11205 2.57121 8.00505 3.02165L7.62686 4.61408L6.03486 4.99215C5.58455 5.09915 5.27961 5.51883 5.31711 5.98021L5.44961 7.61108L4.05217 8.46271C3.65692 8.70358 3.49661 9.19683 3.67474 9.62408L4.30449 11.1345L3.23855 12.3767C2.93717 12.728 2.93724 13.2466 3.23867 13.5978L4.30442 14.8396L3.67474 16.35C3.49661 16.7771 3.65692 17.2705 4.05217 17.5113L5.44961 18.363L5.34517 19.6482L0.274736 24.7193C0.0449858 24.949 -0.0494517 25.2813 0.0252358 25.5976C0.0998608 25.9138 0.332986 26.1688 0.641173 26.2716L4.45667 27.5433L5.72836 31.3588C5.83111 31.667 6.08611 31.9001 6.40236 31.9747C6.71861 32.0493 7.05092 31.955 7.28067 31.7252L14.2426 24.7638L15.3894 25.7485C15.7389 26.0486 16.2577 26.0517 16.6109 25.7485L17.7577 24.7638L24.7196 31.7251C24.9494 31.9549 25.2817 32.0493 25.5979 31.9746C25.9142 31.9 26.1692 31.6669 26.2719 31.3587L27.5436 27.5432L31.3591 26.2715C31.6674 26.1688 31.9004 25.9138 31.975 25.5975C32.0497 25.2813 31.9552 24.949 31.7255 24.7193ZM7.0278 29.3268L6.08717 26.5051C5.99386 26.2252 5.77411 26.0055 5.49424 25.9122L2.67324 24.972L6.54274 21.1024L7.62692 21.36L8.00517 22.9524C8.11217 23.4028 8.53311 23.7075 8.99317 23.6702L10.6245 23.5377L11.4547 24.9L7.0278 29.3268ZM20.0753 22.0686L19.3418 23.2723L18.041 22.7296C17.7142 22.5932 17.3382 22.6527 17.0694 22.8835L16.0001 23.8016L14.9309 22.8835C14.5549 22.5607 14.132 22.6575 13.9592 22.7296L12.6584 23.2723L11.9249 22.0686C11.7407 21.7663 11.4023 21.5936 11.0485 21.6221L9.64349 21.7362L9.31774 20.3647C9.23592 20.0201 8.96686 19.7511 8.6223 19.6692L7.25124 19.3435L7.36536 17.9389C7.39405 17.5858 7.22124 17.2468 6.91874 17.0625L5.71499 16.3289L6.25736 15.0281C6.39367 14.7012 6.33417 14.3255 6.10342 14.0567L5.18549 12.9872L6.10349 11.9173C6.33405 11.6486 6.39361 11.2729 6.2573 10.946L5.71492 9.64521L6.91867 8.91165C7.22117 8.72727 7.39392 8.38821 7.3653 8.03521L7.25117 6.63058L8.62224 6.30496C8.9668 6.22315 9.23586 5.95408 9.31767 5.60946L9.64342 4.23796L11.0485 4.35202C11.4015 4.38096 11.7405 4.20796 11.9249 3.90546L12.6584 2.70183L13.9591 3.24452C14.2859 3.38083 14.6619 3.3214 14.9307 3.09071L16.0001 2.17277L17.0695 3.09071C17.3384 3.32146 17.7142 3.38083 18.041 3.24452L19.3418 2.70183L20.0753 3.90546C20.2596 4.2079 20.5982 4.38108 20.9517 4.35202L22.3567 4.23796L22.6825 5.60946C22.7643 5.95408 23.0334 6.22315 23.3779 6.30496L24.749 6.63058L24.6349 8.03521C24.6062 8.38827 24.779 8.72733 25.0815 8.91165L26.2852 9.64521L25.7429 10.946C25.6065 11.2728 25.666 11.6486 25.8967 11.9173L26.8147 12.9872L25.8967 14.0567C25.666 14.3255 25.6065 14.7012 25.7428 15.0281L26.2852 16.3289L25.0814 17.0625C24.7789 17.2468 24.6062 17.5859 24.6348 17.9389L24.7489 19.3435L23.3779 19.6692C23.0333 19.7511 22.7642 20.0201 22.6824 20.3647L22.3567 21.7362L20.9516 21.6221C20.5986 21.5934 20.2596 21.7661 20.0753 22.0686ZM26.506 25.9122C26.226 26.0055 26.0064 26.2252 25.913 26.5051L24.9724 29.3268L20.5456 24.9L21.3758 23.5376L23.0072 23.6701C23.4672 23.7075 23.8882 23.4028 23.9952 22.9523L24.3734 21.3599L25.4576 21.1023L29.3271 24.9719L26.506 25.9122Z" fill="#E63312"/>
<path d="M23.692 10.3163L20.8517 7.47601C20.4857 7.10988 19.8921 7.10988 19.5259 7.47601L14.9958 12.0061L12.9761 9.98645C12.61 9.62033 12.0164 9.62033 11.6502 9.98645L8.80999 12.8268C8.44387 13.1929 8.44387 13.7865 8.80999 14.1526L14.3329 19.6755C14.6991 20.0417 15.2927 20.0416 15.6587 19.6755L23.6921 11.6421C24.0582 11.276 24.0582 10.6824 23.692 10.3163ZM14.9958 17.6867L10.7987 13.4896L12.3131 11.9752L14.3329 13.9949C14.6989 14.361 15.2926 14.361 15.6587 13.9949L20.1888 9.46476L21.7032 10.9792L14.9958 17.6867Z" fill="#E63312"/>
</svg>
