<svg width="32" height="32" viewBox="0 0 32 32" fill="none" xmlns="http://www.w3.org/2000/svg">
<path d="M22.5625 7.5H26.3125V0H0V7.5H3.75V24.5H13.1875V32H21.4195L22.5625 27.4279L23.7055 32H32V15.125H22.5625V7.5ZM13.1875 3.75C12.1536 3.75 11.3125 2.90887 11.3125 1.87437H15.0625C15.0625 2.90887 14.2214 3.75 13.1875 3.75ZM5.625 22.625V5.625H1.875V1.875H9.4375C9.4375 3.61912 10.6344 5.089 12.25 5.50631V9.375H14.125V5.50631C15.7406 5.08894 16.9375 3.61912 16.9375 1.875H24.4375V5.625H20.6875V15.125H13.1875V22.625H5.625ZM25.1695 30.125L23.7633 24.5H21.3617L19.9555 30.125H15.0625V20.75H30.125V30.125H25.1695ZM30.125 18.875H15.0625V17H30.125V18.875Z" fill="#E63312"/>
</svg>
