<svg width="32" height="32" viewBox="0 0 32 32" fill="none" xmlns="http://www.w3.org/2000/svg">
<g clip-path="url(#clip0_1136_6680)">
<path d="M30.999 15.7867C29.9291 14.9049 28.2379 14.8293 27.128 16.0205L24.3726 18.9784C24.0163 17.8335 22.947 16.9998 21.6865 16.9998H16.7693C16.3962 16.9998 16.2712 16.8573 15.6231 16.358C13.152 14.2037 9.44038 14.2106 6.97675 16.3786L5.16938 17.9697C4.35694 17.5397 3.40825 17.5291 2.59138 17.9372L0.518375 18.9734C0.0552505 19.2053 -0.132187 19.7684 0.0990005 20.2315L5.72369 31.4808C5.95556 31.9439 6.51863 32.1314 6.98175 31.9002L9.05475 30.8634C10.0766 30.3528 10.6452 29.3103 10.6084 28.2492H21.6864C23.7407 28.2492 25.7037 27.268 26.9361 25.6244L31.4365 19.6235C32.3096 18.4604 32.1714 16.7548 30.999 15.7867ZM8.216 29.1865L6.98169 29.804L2.19513 20.2315L3.43006 19.614C3.89319 19.3828 4.45563 19.5697 4.6875 20.0334L8.63538 27.9292C8.86662 28.3922 8.67912 28.9547 8.216 29.1865ZM29.9366 18.4985L25.4363 24.4994C24.5557 25.6737 23.1539 26.3742 21.6865 26.3742H9.95406L6.44113 19.3478L8.21537 17.786C9.98088 16.233 12.6432 16.233 14.4087 17.786C15.4487 18.7016 16.0955 18.8747 16.7693 18.8747H21.6864C22.2033 18.8747 22.6239 19.2954 22.6239 19.8122C22.6239 20.329 22.2033 20.7496 21.6864 20.7496H16.8986C16.3811 20.7496 15.9612 21.1696 15.9612 21.687C15.9612 22.2045 16.3812 22.6245 16.8986 22.6245H22.3146C23.0926 22.6245 23.8426 22.2982 24.3726 21.7289L28.4998 17.2985C28.8773 16.8935 29.456 16.9273 29.811 17.2379C30.1822 17.5629 30.2222 18.1185 29.9366 18.4985Z" fill="#E63312"/>
<path d="M19.7116 6.39792C20.3534 5.72486 20.749 4.81492 20.749 3.81304C20.749 1.74942 19.0816 0.000793457 16.9993 0.000793457C14.9325 0.000793457 13.187 1.74629 13.187 3.81304C13.187 4.78423 13.5676 5.70104 14.2588 6.40542C12.5446 7.36661 11.3121 9.21148 11.3121 11.3751V12.3125C11.3121 12.83 11.7321 13.25 12.2496 13.25H21.6865C22.2039 13.25 22.6239 12.83 22.6239 12.3125V11.3751C22.6239 9.25398 21.4572 7.38036 19.7116 6.39792ZM16.9993 1.87573C18.0154 1.87573 18.8741 2.76317 18.8741 3.81311C18.8741 4.84679 18.0329 5.68798 16.9993 5.68798C15.9493 5.68798 15.0619 4.82929 15.0619 3.81311C15.0619 2.78129 15.9674 1.87573 16.9993 1.87573ZM13.187 11.3751C13.187 9.30836 14.9325 7.56286 16.9993 7.56286C19.0666 7.56286 20.749 9.27273 20.749 11.3751H13.187Z" fill="#E63312"/>
</g>
<defs>
<clipPath id="clip0_1136_6680">
<rect width="32" height="32" fill="white"/>
</clipPath>
</defs>
</svg>
