<svg width="30" height="32" viewBox="0 0 30 32" fill="none" xmlns="http://www.w3.org/2000/svg">
<path d="M21.25 21.25H18.4375V20.3732C19.2006 19.9558 19.8802 19.4041 20.4442 18.75H22.5C24.3954 18.75 25.9375 17.2079 25.9375 15.3125V12.1875C25.9375 10.9654 25.1536 9.92412 24.0625 9.53725V9.0625C24.0625 4.06544 19.9971 0 15 0C10.0029 0 5.9375 4.06544 5.9375 9.0625V9.53625C4.84631 9.92325 4.0625 10.9653 4.0625 12.1875C4.0625 13.7383 5.32419 15 6.875 15H7.87362C8.17712 17.3197 9.59094 19.2949 11.5625 20.3732V21.25H8.75C4.44219 21.25 0.9375 24.7547 0.9375 29.0625V31.0625C0.9375 31.5802 1.35725 32 1.875 32H28.125C28.6427 32 29.0625 31.5802 29.0625 31.0625V29.0625C29.0625 24.7547 25.5578 21.25 21.25 21.25ZM24.0625 15.3125C24.0625 16.1741 23.3616 16.875 22.5 16.875H21.6141C21.8656 16.2859 22.0404 15.6568 22.1264 15H24.0625V15.3125ZM24.0625 12.1875V13.125H22.1875V11.25H23.125C23.6419 11.25 24.0625 11.6706 24.0625 12.1875ZM7.8125 13.125H6.875C6.35806 13.125 5.9375 12.7044 5.9375 12.1875C5.9375 11.6706 6.35806 11.25 6.875 11.25H7.8125V13.125ZM7.8125 9.375V9.0625C7.8125 5.09931 11.0368 1.875 15 1.875C18.9632 1.875 22.1875 5.09931 22.1875 9.0625V9.375H21.5789L18.7106 7.08044C18.3376 6.782 17.7999 6.81181 17.4621 7.14956C16.0271 8.58463 14.119 9.375 12.0895 9.375H7.8125ZM9.6875 14.0625V11.25H12.0895C14.3366 11.25 16.4644 10.4727 18.1658 9.04562L20.3125 10.7631V14.0625C20.3125 15.0949 20.0155 16.0587 19.5039 16.875H15.625C15.1073 16.875 14.6875 17.2948 14.6875 17.8125C14.6875 18.3302 15.1073 18.75 15.625 18.75H17.4967C16.7519 19.1483 15.9021 19.375 15 19.375C12.0707 19.375 9.6875 16.9918 9.6875 14.0625ZM16.5625 21.0784V22.1875C16.5625 23.0491 15.8616 23.75 15 23.75C14.1384 23.75 13.4375 23.0491 13.4375 22.1875V21.0784C13.9408 21.1904 14.4635 21.25 15 21.25C15.5365 21.25 16.0592 21.1904 16.5625 21.0784ZM27.1875 30.125H2.8125V29.0625C2.8125 25.7886 5.47606 23.125 8.75 23.125H11.6935C12.1027 24.5661 13.4296 25.625 15 25.625C16.5704 25.625 17.8972 24.5661 18.3065 23.125H21.25C24.5239 23.125 27.1875 25.7886 27.1875 29.0625V30.125Z" fill="#E63312"/>
</svg>
