<svg width="32" height="32" viewBox="0 0 32 32" fill="none" xmlns="http://www.w3.org/2000/svg">
<g clip-path="url(#clip0_1136_6674)">
<path d="M30.1021 16.1535C29.8341 11.4 27.158 7.12119 23.0292 4.75H26.5362C26.9232 5.84119 27.9653 6.625 29.1875 6.625C30.7383 6.625 32 5.36331 32 3.8125C32 2.26169 30.7383 1 29.1875 1C27.9653 1 26.9232 1.78381 26.5362 2.875H18.8125V1H13.1875V2.875H5.46375C5.07675 1.78381 4.03469 1 2.8125 1C1.26169 1 0 2.26169 0 3.8125C0 5.36331 1.26169 6.625 2.8125 6.625C4.03469 6.625 5.07675 5.84119 5.46375 4.74937H8.97087C4.84419 7.11987 2.16594 11.3974 1.89794 16.1535C0.794875 16.5339 0 17.5818 0 18.8125C0 20.3633 1.26169 21.625 2.8125 21.625C4.36331 21.625 5.625 20.3633 5.625 18.8125C5.625 17.5997 4.85331 16.5638 3.77519 16.1698C4.11675 10.8406 7.98556 6.30275 13.1875 5.07613V6.625H18.8125V5.07606C24.0144 6.30269 27.8832 10.8406 28.2248 16.1698C27.1467 16.5638 26.375 17.5997 26.375 18.8125C26.375 20.3633 27.6367 21.625 29.1875 21.625C30.7383 21.625 32 20.3633 32 18.8125C32 17.5818 31.2051 16.5339 30.1021 16.1535ZM2.8125 19.75C2.29556 19.75 1.875 19.3294 1.875 18.8125C1.875 18.2956 2.29556 17.875 2.8125 17.875C3.32944 17.875 3.75 18.2956 3.75 18.8125C3.75 19.3294 3.32944 19.75 2.8125 19.75ZM29.1875 2.875C29.7044 2.875 30.125 3.29556 30.125 3.8125C30.125 4.32944 29.7044 4.75 29.1875 4.75C28.6706 4.75 28.25 4.32944 28.25 3.8125C28.25 3.29556 28.6706 2.875 29.1875 2.875ZM2.8125 4.75C2.29556 4.75 1.875 4.32944 1.875 3.8125C1.875 3.29556 2.29556 2.875 2.8125 2.875C3.32944 2.875 3.75 3.29556 3.75 3.8125C3.75 4.32944 3.32944 4.75 2.8125 4.75ZM16.9375 4.75H15.0625V2.875H16.9375V4.75ZM29.1875 19.75C28.6706 19.75 28.25 19.3294 28.25 18.8125C28.25 18.2956 28.6706 17.875 29.1875 17.875C29.7044 17.875 30.125 18.2956 30.125 18.8125C30.125 19.3294 29.7044 19.75 29.1875 19.75Z" fill="#E63312"/>
<path d="M16 7.61536L9.30627 18.7715L12.6081 25.375H9.43746V31H22.5625V25.375H19.3918L22.6936 18.7715L16 7.61536ZM20.6875 29.125H11.3125V27.25H20.6875V29.125ZM14.7043 25.375L11.4436 18.8536L15.0625 12.8222V19.75H16.9375V12.8222L20.5563 18.8536L17.2956 25.375H14.7043Z" fill="#E63312"/>
</g>
<defs>
<clipPath id="clip0_1136_6674">
<rect width="32" height="32" fill="white"/>
</clipPath>
</defs>
</svg>
