<svg width="24" height="25" viewBox="0 0 24 25" fill="none" xmlns="http://www.w3.org/2000/svg">
<g clip-path="url(#clip0_14230_4842)">
<path d="M16.5 0.5H7.5C3.3585 0.5 0 3.8585 0 8V17C0 21.1415 3.3585 24.5 7.5 24.5H16.5C20.6415 24.5 24 21.1415 24 17V8C24 3.8585 20.6415 0.5 16.5 0.5ZM21.75 17C21.75 19.895 19.395 22.25 16.5 22.25H7.5C4.605 22.25 2.25 19.895 2.25 17V8C2.25 5.105 4.605 2.75 7.5 2.75H16.5C19.395 2.75 21.75 5.105 21.75 8V17Z" fill="#7D8D98"/>
<path d="M12 6.5C8.6865 6.5 6 9.1865 6 12.5C6 15.8135 8.6865 18.5 12 18.5C15.3135 18.5 18 15.8135 18 12.5C18 9.1865 15.3135 6.5 12 6.5ZM12 16.25C9.933 16.25 8.25 14.567 8.25 12.5C8.25 10.4315 9.933 8.75 12 8.75C14.067 8.75 15.75 10.4315 15.75 12.5C15.75 14.567 14.067 16.25 12 16.25Z" fill="#7D8D98"/>
<path d="M18.4501 6.84949C18.8917 6.84949 19.2496 6.49154 19.2496 6.04999C19.2496 5.60844 18.8917 5.25049 18.4501 5.25049C18.0086 5.25049 17.6506 5.60844 17.6506 6.04999C17.6506 6.49154 18.0086 6.84949 18.4501 6.84949Z" fill="#7D8D98"/>
</g>
<defs>
<clipPath id="clip0_14230_4842">
<rect width="24" height="24" fill="white" transform="translate(0 0.5)"/>
</clipPath>
</defs>
</svg>
